<?xml version="1.0" encoding="UTF-8"?>
<svg id="Calque_1" xmlns="http://www.w3.org/2000/svg" version="1.1" viewBox="0 0 196 34">
  <!-- Generator: Adobe Illustrator 30.1.0, SVG Export Plug-In . SVG Version: 2.1.1 Build 136)  -->
  <defs>
    <style>
      .st0 {
        fill: #fff;
      }
    </style>
  </defs>
  <path class="st0" d="M13.93,7.96c3.26,0,5.66.66,7.2,1.98,1.56,1.32,2.34,3.05,2.34,5.18,0,.72-.1,1.52-.29,2.41-.46,1.97-1.31,3.7-2.56,5.18-1.25,1.46-2.78,2.6-4.61,3.42-1.8.79-3.76,1.19-5.87,1.19-3.34,0-5.81-.66-7.42-1.98-1.58-1.34-2.38-3.12-2.38-5.33,0-.74.1-1.57.29-2.48.46-1.87,1.32-3.53,2.59-4.97,1.3-1.46,2.87-2.59,4.72-3.38,1.87-.82,3.86-1.22,5.98-1.22ZM13.82,11.16c-.5,0-1.04.46-1.62,1.37-.55.89-1.21,2.58-1.98,5.08-.77,2.5-1.15,4.25-1.15,5.26,0,.53.08.89.25,1.08.17.17.4.25.68.25.5.05,1.02-.38,1.55-1.3.55-.91,1.24-2.69,2.05-5.33.74-2.33,1.12-4.02,1.12-5.08,0-.5-.08-.85-.25-1.04-.14-.19-.36-.29-.65-.29Z"/>
  <path class="st0" d="M44.99,22.03c-.05.1-.07.24-.07.43,0,.17.04.3.11.4.1.1.22.14.36.14.29,0,.53-.12.72-.36.22-.26.36-.4.43-.4.12,0,.22.08.29.25.07.14.11.32.11.54.02.7-.2,1.38-.68,2.05-.48.65-1.19,1.19-2.12,1.62-.91.41-2.02.61-3.31.61-1.58,0-2.84-.36-3.78-1.08-.94-.74-1.42-1.73-1.44-2.95,0-.89.22-1.88.65-2.99l1.98-5.18c.12-.31.18-.56.18-.76,0-.31-.11-.55-.32-.72-.19-.19-.43-.29-.72-.29-.46,0-.92.22-1.4.65-.46.41-.83,1.08-1.12,2.02v-.07l-2.27,7.31c-.07.29-.11.54-.11.76,0,.31.06.56.18.76.12.17.29.34.5.5.17.17.29.31.36.43.07.1.08.23.04.4-.12.31-.36.54-.72.68-.36.14-.91.22-1.66.22h-8.21c-.62,0-1.08-.1-1.37-.29-.29-.22-.38-.49-.29-.83.1-.29.35-.54.76-.76.36-.19.66-.42.9-.68.24-.26.44-.68.61-1.26l5.47-17.96c.07-.22.11-.4.11-.54,0-.26-.07-.48-.22-.65-.12-.17-.29-.34-.5-.5-.24-.19-.42-.36-.54-.5-.1-.14-.11-.34-.04-.58.14-.55.9-1.03,2.27-1.44,1.37-.41,2.8-.61,4.28-.61,1.39,0,2.41.26,3.06.79.67.53,1.01,1.25,1.01,2.16,0,.53-.08,1.04-.25,1.55l-1.94,6.34c.94-1.22,1.92-2.08,2.95-2.56,1.06-.48,2.2-.72,3.42-.72,1.46,0,2.64.44,3.53,1.33.91.89,1.37,2.04,1.37,3.46,0,.74-.12,1.48-.36,2.2l-2.2,7.09Z"/>
  <path class="st0" d="M82.72,22.03c-.05.1-.07.24-.07.43,0,.17.04.3.11.4.1.1.22.14.36.14.29,0,.53-.12.72-.36.22-.26.36-.4.43-.4.12,0,.22.08.29.25.07.14.11.32.11.54.02.7-.2,1.38-.68,2.05-.48.65-1.19,1.19-2.12,1.62-.91.41-2.02.61-3.31.61-1.58,0-2.84-.36-3.78-1.08-.94-.74-1.42-1.73-1.44-2.95,0-.89.22-1.88.65-2.99l1.98-5.18c.12-.31.18-.56.18-.76,0-.31-.11-.55-.32-.72-.19-.19-.43-.29-.72-.29-.41,0-.83.18-1.26.54s-.82.92-1.15,1.69l-1.98,6.44c-.05.1-.07.24-.07.43,0,.17.04.3.11.4.1.1.22.14.36.14.29,0,.53-.12.72-.36.22-.26.36-.4.43-.4.12,0,.22.08.29.25.07.14.11.32.11.54.02.7-.2,1.38-.68,2.05-.48.65-1.19,1.19-2.12,1.62-.91.41-2.02.61-3.31.61-1.58,0-2.84-.36-3.78-1.08-.94-.74-1.42-1.73-1.44-2.95,0-.89.22-1.88.65-2.99l1.98-5.18c.12-.31.18-.56.18-.76,0-.31-.11-.55-.32-.72-.19-.19-.43-.29-.72-.29-.41,0-.83.18-1.26.54-.43.34-.79.89-1.08,1.66l-2.38,7.7c-.1.26-.14.52-.14.76,0,.29.06.53.18.72.12.17.29.35.5.54.17.14.29.28.36.4.07.12.08.26.04.43-.1.31-.32.54-.68.68-.36.14-.92.22-1.69.22h-8.21c-.62,0-1.07-.1-1.33-.29-.29-.22-.4-.49-.32-.83.1-.29.35-.54.76-.76.36-.19.66-.42.9-.68.24-.26.44-.68.61-1.26l3.2-10.4c.05-.12.07-.29.07-.5,0-.26-.06-.47-.18-.61-.1-.14-.26-.32-.5-.54-.24-.19-.41-.36-.5-.5s-.11-.34-.04-.58c.14-.55.9-1.03,2.27-1.44,1.37-.43,2.8-.65,4.28-.65,1.18,0,2.1.32,2.77.97.7.65,1.03,1.54,1.01,2.66.98-1.37,2.02-2.32,3.1-2.84,1.1-.53,2.29-.79,3.56-.79,1.39,0,2.52.41,3.38,1.22.89.79,1.38,1.84,1.48,3.13,1.03-1.63,2.14-2.76,3.31-3.38,1.18-.65,2.46-.97,3.85-.97,1.46,0,2.64.44,3.53,1.33.91.89,1.37,2.04,1.37,3.46,0,.74-.12,1.48-.36,2.2l-2.2,7.09Z"/>
  <path class="st0" d="M104.93,7.96c1.06,0,1.9.43,2.52,1.3.65.84.97,1.99.97,3.46,0,1.27-.23,2.64-.68,4.1-.89,2.95-2.32,5.74-4.28,8.35-1.94,2.62-4.19,4.72-6.73,6.3-2.52,1.58-5.04,2.38-7.56,2.38-1.25,0-2.33-.22-3.24-.65-.89-.43-1.56-1.01-2.02-1.73-.48-.72-.72-1.49-.72-2.3,0-.36.06-.76.18-1.19.22-.67.58-1.19,1.08-1.55.5-.36,1.1-.54,1.8-.54,1.1,0,2,.37,2.7,1.12.72.77,1.18,1.81,1.37,3.13,1.54-.07,2.95-.73,4.25-1.98-1.22-.22-2.14-.62-2.74-1.22-.58-.62-.97-1.58-1.19-2.88l-1.44-8.82c-.07-.46-.18-.77-.32-.94-.12-.19-.29-.29-.5-.29-.17,0-.37.08-.61.25-.22.17-.37.25-.47.25-.19,0-.29-.2-.29-.61,0-.34.06-.7.18-1.08.43-1.37,1.24-2.52,2.41-3.46,1.18-.96,2.54-1.44,4.1-1.44s2.66.46,3.38,1.37c.74.91,1.22,2.32,1.44,4.21l1.08,7.92c.07.6.29.9.65.9.43,0,.94-.38,1.51-1.15.58-.79,1.14-1.91,1.69-3.35-.72-.65-1.27-1.39-1.66-2.23-.38-.84-.58-1.74-.58-2.7,0-.74.1-1.42.29-2.02.29-.96.73-1.68,1.33-2.16.62-.5,1.32-.76,2.09-.76Z"/>
  <path class="st0" d="M122.86.4c2.57,0,4.49.4,5.76,1.19,1.3.77,1.94,1.72,1.94,2.84,0,.91-.38,1.62-1.15,2.12-.74.48-1.73.72-2.95.72-1.13,0-2-.28-2.63-.83-.62-.55-.94-1.24-.94-2.05,0-.5.16-1.03.47-1.58-.72,0-1.32.18-1.8.54-.48.34-.85.92-1.12,1.76-.14.53-.22,1.02-.22,1.48,0,.58.1,1.03.29,1.37.22.31.52.47.9.47h2.12c1.25,0,1.87.38,1.87,1.15,0,.1-.02.24-.07.43-.14.53-.44.92-.9,1.19-.43.26-1.09.4-1.98.4h-1.08l-3.56,11.66c-.07.29-.11.54-.11.76,0,.31.06.56.18.76.12.17.29.34.5.5.17.17.29.31.36.43.07.1.08.23.04.4-.12.31-.36.54-.72.68-.36.14-.91.22-1.66.22h-8.21c-.62,0-1.08-.1-1.37-.29-.29-.22-.38-.49-.29-.83.1-.29.35-.54.76-.76.36-.19.66-.42.9-.68.24-.26.44-.68.61-1.26l2.81-9.22c.12-.36.18-.73.18-1.12,0-.48-.11-.85-.32-1.12-.19-.29-.49-.6-.9-.94-.26-.22-.47-.4-.61-.54-.12-.17-.18-.36-.18-.58-.02-.46.13-.78.47-.97.36-.19,1.03-.29,2.02-.29h.9c-.17-.6-.25-1.2-.25-1.8s.11-1.22.32-1.87c.46-1.22,1.43-2.26,2.92-3.1,1.51-.84,3.74-1.26,6.7-1.26Z"/>
  <path class="st0" d="M137.08,7.96c3.26,0,5.66.66,7.2,1.98,1.56,1.32,2.34,3.05,2.34,5.18,0,.72-.1,1.52-.29,2.41-.46,1.97-1.31,3.7-2.56,5.18-1.25,1.46-2.78,2.6-4.61,3.42-1.8.79-3.76,1.19-5.87,1.19-3.34,0-5.81-.66-7.42-1.98-1.58-1.34-2.38-3.12-2.38-5.33,0-.74.1-1.57.29-2.48.46-1.87,1.32-3.53,2.59-4.97,1.3-1.46,2.87-2.59,4.72-3.38,1.87-.82,3.86-1.22,5.98-1.22ZM136.98,11.16c-.5,0-1.04.46-1.62,1.37-.55.89-1.21,2.58-1.98,5.08-.77,2.5-1.15,4.25-1.15,5.26,0,.53.08.89.25,1.08.17.17.4.25.68.25.5.05,1.02-.38,1.55-1.3.55-.91,1.24-2.69,2.05-5.33.74-2.33,1.12-4.02,1.12-5.08,0-.5-.08-.85-.25-1.04-.14-.19-.36-.29-.65-.29Z"/>
  <path class="st0" d="M160.71,7.96c3.26,0,5.66.66,7.2,1.98,1.56,1.32,2.34,3.05,2.34,5.18,0,.72-.1,1.52-.29,2.41-.46,1.97-1.31,3.7-2.56,5.18-1.25,1.46-2.78,2.6-4.61,3.42-1.8.79-3.76,1.19-5.87,1.19-3.34,0-5.81-.66-7.42-1.98-1.58-1.34-2.38-3.12-2.38-5.33,0-.74.1-1.57.29-2.48.46-1.87,1.32-3.53,2.59-4.97,1.3-1.46,2.87-2.59,4.72-3.38,1.87-.82,3.86-1.22,5.98-1.22ZM160.6,11.16c-.5,0-1.04.46-1.62,1.37-.55.89-1.21,2.58-1.98,5.08-.77,2.5-1.15,4.25-1.15,5.26,0,.53.08.89.25,1.08.17.17.4.25.68.25.5.05,1.02-.38,1.55-1.3.55-.91,1.24-2.69,2.05-5.33.74-2.33,1.12-4.02,1.12-5.08,0-.5-.08-.85-.25-1.04-.14-.19-.36-.29-.65-.29Z"/>
  <path class="st0" d="M190.53,21.82c-.05.19-.07.32-.07.4,0,.17.05.3.14.4.1.1.22.14.36.14.29,0,.53-.12.72-.36.22-.26.36-.4.43-.4.12,0,.22.08.29.25.07.17.11.36.11.58.02.65-.23,1.31-.76,1.98-.5.67-1.19,1.22-2.05,1.66-.86.43-1.8.65-2.81.65-1.2,0-2.24-.23-3.13-.68s-1.5-1.06-1.84-1.8c-.65.84-1.39,1.46-2.23,1.87-.84.41-1.73.61-2.66.61-1.1,0-2.14-.28-3.1-.83-.94-.55-1.69-1.33-2.27-2.34-.55-1.03-.83-2.2-.83-3.49,0-2.18.41-4.24,1.22-6.16.84-1.94,2-3.5,3.49-4.68,1.49-1.2,3.18-1.8,5.08-1.8,1.03,0,1.91.12,2.63.36.74.24,1.42.6,2.02,1.08l1.22-4.03c.07-.22.11-.4.11-.54,0-.26-.07-.48-.22-.65-.12-.17-.29-.34-.5-.5-.24-.19-.42-.36-.54-.5-.1-.14-.11-.34-.04-.58.14-.55.9-1.03,2.27-1.44,1.37-.41,2.8-.61,4.28-.61,1.39,0,2.41.26,3.06.79.67.53,1.01,1.25,1.01,2.16,0,.53-.08,1.04-.25,1.55l-5.15,16.92ZM184.51,11.7c-.38-.34-.8-.5-1.26-.5-.7,0-1.38.52-2.05,1.55-.67,1.03-1.21,2.28-1.62,3.74-.41,1.46-.6,2.78-.58,3.96,0,1.32.43,1.98,1.3,1.98.31,0,.58-.12.79-.36.22-.26.42-.68.61-1.26l2.81-9.11Z"/>
</svg>